<?xml version="1.0" encoding="utf-8"?>
<!-- Generator: Adobe Illustrator 21.1.0, SVG Export Plug-In . SVG Version: 6.00 Build 0)  -->
<svg version="1.1" id="Layer_1" xmlns="http://www.w3.org/2000/svg" xmlns:xlink="http://www.w3.org/1999/xlink" x="0px" y="0px"
	 viewBox="0 0 127.1 120.5" style="enable-background:new 0 0 127.1 120.5;" xml:space="preserve">
<style type="text/css">
	.st0{fill:#0063A2;}
	.st1{fill:#0DB7E1;}
	.st2{fill:url(#SVGID_1_);}
	.st3{fill:url(#SVGID_2_);}
	.st4{fill:url(#SVGID_3_);}
	.st5{fill:url(#SVGID_4_);}
	.st6{fill:url(#SVGID_5_);}
</style>
<g>
	<path class="st0" d="M7.9,83.6h15v5h-15v6.6h18.4v5H1.5V72.6h24.6v5H7.9V83.6z"/>
	<path class="st0" d="M31.7,93.9c3.6,1.1,7.7,1.8,11,1.8c3.4,0,6.8-0.4,6.9-3c0-1.9-3.6-3-7.3-4c-6.3-1.7-12-4-12-8.8
		c0-5.4,6.4-7.9,13.8-7.9c4.1,0,8,0.8,10.7,1.5l-1.6,5c-3.3-1.1-7.1-1.6-9.1-1.6c-3.3,0-7.1,0.3-7.2,2.9c0,2.3,4.6,3.2,8.3,4.2
		c6.5,1.9,10.9,3.7,10.9,8.2c0,5.1-5.4,8.5-12.9,8.5c-5,0-10.3-0.9-13.3-2L31.7,93.9z"/>
	<path class="st0" d="M86.9,78.5c-2.2-0.6-5-1.5-8.6-1.5c-7.7,0-12.6,2.9-12.6,9.5c0,6.2,4,8.9,12.3,8.9c3.6,0,6.9-1.1,9.6-2.1
		l1.1,4.8c-2.9,1.2-7.4,2.5-12.7,2.5c-11.5,0-16.8-6.5-16.8-14.2c0-8,5.2-14.8,17.6-14.8c3.6,0,8.5,0.7,11.4,1.7L86.9,78.5z"/>
	<path class="st0" d="M108.6,71.7c10.1,0,16.8,4.3,16.8,13.9c0,9.6-6.1,15-18.2,15c-10.1,0-16.5-4.4-16.5-14
		C90.7,77.1,96.5,71.7,108.6,71.7z M107.8,95.4c6.9,0,11.2-2.3,11.2-9.8c0-6.7-4.2-8.7-10.6-8.7c-6.8,0-11.2,2.3-11.2,9.7
		C97.2,93.3,101.4,95.4,107.8,95.4z"/>
</g>
<g>
	<path class="st1" d="M7.7,106.1l4.7,12.9h-1.5l-1.3-3.6H4.2L2.9,119H1.4l4.7-12.9H7.7z M6.8,107.9l-2.2,6.3H9L6.8,107.9z"/>
	<path class="st1" d="M26,109.9c0,2.3-1.7,3.5-3.6,3.7l4.1,5.4h-1.8l-4-5.3h-1.6v5.3h-1.4v-12.8h3.9C24.5,106.1,26,107.5,26,109.9z
		 M21.5,112.5c1.9,0,3.1-1,3.1-2.6c0-2-1.3-2.5-3.3-2.5h-2.1v5.1H21.5z"/>
	<path class="st1" d="M41.1,113.2v4.9c-1,0.5-2.6,1.1-4.1,1.1c-4,0-5.5-3-5.5-6.5c0-3.7,1.3-6.7,5.7-6.7c1.3,0,2.8,0.2,3.8,0.7
		l-0.5,1.1c-0.7-0.3-1.9-0.6-3.3-0.6c-3.3,0-4.3,2.4-4.3,5.5c0,2.8,1.1,5.3,4.3,5.3c0.6,0,1.6-0.2,2.5-0.5v-4.2H41.1z"/>
	<path class="st1" d="M48.6,111.7h4.8v1.2h-4.8v4.8h6v1.2h-7.4v-12.8h7.3v1.2h-5.9V111.7z"/>
	<path class="st1" d="M70.5,106.1V119h-1.6l-6.7-10.5V119h-1.4v-12.8h1.6l6.7,10.5v-10.5H70.5z"/>
	<path class="st1" d="M81.2,107.4V119h-1.4v-11.6h-3.9v-1.2h9.3v1.2H81.2z"/>
	<path class="st1" d="M92.4,106.1V119H91v-12.8H92.4z"/>
	<path class="st1" d="M109.4,106.1V119h-1.6l-6.7-10.5V119h-1.4v-12.8h1.6l6.7,10.5v-10.5H109.4z"/>
	<path class="st1" d="M121,106.1l4.7,12.9h-1.5l-1.3-3.6h-5.4l-1.3,3.6h-1.5l4.7-12.9H121z M120.2,107.9l-2.2,6.3h4.4L120.2,107.9z"
		/>
</g>
<radialGradient id="SVGID_1_" cx="36.1034" cy="36.8155" r="39.2533" gradientUnits="userSpaceOnUse">
	<stop  offset="0" style="stop-color:#CDE9F6"/>
	<stop  offset="1" style="stop-color:#0DB7E1"/>
</radialGradient>
<path class="st2" d="M89.8,14.6c0.1-0.1,0.2-0.1,0.2-0.1l3-10.9c-11.7,2.2-26.2,7.8-40.7,16.5c-7.2,4.3-13.8,9-19.5,13.8
	c0,0.3,0.1,0.6,0.1,0.8c0.1,0.4,0.2,0.9,0.3,1.3c7.6-4.9,16.7-9.5,26.8-13.4C70.6,18.7,80.7,16,89.8,14.6z"/>
<radialGradient id="SVGID_2_" cx="36.1028" cy="36.8155" r="39.2531" gradientUnits="userSpaceOnUse">
	<stop  offset="0" style="stop-color:#CDE9F6"/>
	<stop  offset="1" style="stop-color:#0DB7E1"/>
</radialGradient>
<path class="st3" d="M91.2,26.3l2.7-9.6C84,18,72.7,20.8,61.2,25.2c-10.2,3.9-19.4,8.6-27,13.5c0.2,0.6,0.4,1.2,0.7,1.8
	c9.6-4.8,21.7-8.9,35.3-11.5C77.4,27.6,84.5,26.7,91.2,26.3z"/>
<radialGradient id="SVGID_3_" cx="36.1028" cy="36.8162" r="39.2536" gradientUnits="userSpaceOnUse">
	<stop  offset="0" style="stop-color:#CDE9F6"/>
	<stop  offset="1" style="stop-color:#0DB7E1"/>
</radialGradient>
<path class="st4" d="M70.7,31.9c-13.2,2.6-25.1,6.5-34.5,11.2c0.3,0.5,0.6,1,0.9,1.4c10.9-4,25.5-6.5,41.4-6.8
	c4.7-0.1,9.2,0,13.6,0.3l2.5-8.9C87.1,29.4,79,30.3,70.7,31.9z"/>
<radialGradient id="SVGID_4_" cx="37.0977" cy="37.8424" r="25.8818" gradientUnits="userSpaceOnUse">
	<stop  offset="0" style="stop-color:#CCD4E8"/>
	<stop  offset="1" style="stop-color:#0063A2"/>
</radialGradient>
<path class="st5" d="M76,5.9c-5.9-3.8-13.2-5.5-20.7-4C41.2,4.6,31.6,17.4,32.6,31.4C38,26.7,44.2,22.1,51.1,18
	C59.6,12.9,68.1,8.8,76,5.9z"/>
<radialGradient id="SVGID_5_" cx="37.0975" cy="37.8422" r="25.8822" gradientUnits="userSpaceOnUse">
	<stop  offset="0" style="stop-color:#CCD4E8"/>
	<stop  offset="1" style="stop-color:#0063A2"/>
</radialGradient>
<path class="st6" d="M78.4,40.3c-15.3,0.3-29.3,2.6-40,6.3C44.7,54.8,55.2,59.1,66,57c9.5-1.8,17-8.3,20.5-16.6
	C83.9,40.3,81.2,40.3,78.4,40.3z"/>
<g>
</g>
<g>
</g>
<g>
</g>
<g>
</g>
<g>
</g>
<g>
</g>
</svg>
